PathFileType	4	(X/Y/Z)	/Users/itak/Documents/Research/Walk-IL/dataset/trc/00558_00009.trc
DataRate	CameraRate	NumFrames	NumMarkers	Units	OrigDataRate	OrigDataStartFrame	OrigNumFrames
100.000000	100.000000	4	54	mm	100.000000	57	456
Frame#	Time	RPSI			LPSI			L3			STRN			T10			C7			CLAV			RBAK			LBAK			LSHO			LUPA			LAEL			LAOL			LWTS			LWPS			LFRA			LIFD			LHPS			LHTS			RSHO			RUPA			RAEL			RAOL			RWTS			RWPS			RFRA			RHTS			RHPS			RBHD			LFHD			RFHD			LBHD			LHIP			RHIP			RASI			LASI			LKNE			LTHI			LANK			LTIP			LTOE			LMT1			LMT5			LHEE			RKNE			RTHI			RANK			RTIP			RTOE			RMT1			RMT5			RHEE			RIFD			*53			
		X1	Y1	Z1	X2	Y2	Z2	X3	Y3	Z3	X4	Y4	Z4	X5	Y5	Z5	X6	Y6	Z6	X7	Y7	Z7	X8	Y8	Z8	X9	Y9	Z9	X10	Y10	Z10	X11	Y11	Z11	X12	Y12	Z12	X13	Y13	Z13	X14	Y14	Z14	X15	Y15	Z15	X16	Y16	Z16	X17	Y17	Z17	X18	Y18	Z18	X19	Y19	Z19	X20	Y20	Z20	X21	Y21	Z21	X22	Y22	Z22	X23	Y23	Z23	X24	Y24	Z24	X25	Y25	Z25	X26	Y26	Z26	X27	Y27	Z27	X28	Y28	Z28	X29	Y29	Z29	X30	Y30	Z30	X31	Y31	Z31	X32	Y32	Z32	X33	Y33	Z33	X34	Y34	Z34	X35	Y35	Z35	X36	Y36	Z36	X37	Y37	Z37	X38	Y38	Z38	X39	Y39	Z39	X40	Y40	Z40	X41	Y41	Z41	X42	Y42	Z42	X43	Y43	Z43	X44	Y44	Z44	X45	Y45	Z45	X46	Y46	Z46	X47	Y47	Z47	X48	Y48	Z48	X49	Y49	Z49	X50	Y50	Z50	X51	Y51	Z51	X52	Y52	Z52	X53	Y53	Z53	X54	Y54	Z54	

58	0.5700000000000001	-1578.692993164062	1014.276306152344	-348.412841796875	-1534.037719726562	1018.635192871094	-474.5147399902344	-1550.929809570312	1106.516723632812	-412.3122863769531	-1324.958984375	1291.677612304688	-351.6515197753906	-1557.640380859375	1232.932373046875	-415.7300720214844	-1512.101196289062	1506.146118164062	-387.7612609863281	-1341.619995117188	1402.7744140625	-355.0559997558594	-1605.004272460938	1381.400024414062	-325.9085388183594	-1523.210327148438	1454.986083984375	-484.7776794433594	-1408.287841796875	1481.645385742188	-538.7046508789062	-1399.219482421875	1356.517700195312	-620.1207275390625	-1368.496826171875	1135.224853515625	-637.288818359375	-1467.559692382812	1126.702514648438	-619.3637084960938	-1299.187866210938	893.4066772460938	-558.5918579101562	-1313.545776367188	871.0602416992188	-641.4974975585938	-1343.982666015625	1049.106323242188	-635.72802734375	-1291.652099609375	727.3616333007812	-569.0704345703125	-1306.0986328125	811.5433349609375	-632.28173828125	-1270.44775390625	818.8795776367188	-571.8299560546875	-1496.256225585938	1466.838989257812	-225.1411895751953	-1532.77197265625	1402.411865234375	-165.8011627197266	-1548.492553710938	1115.164916992188	-117.8504867553711	-1597.234619140625	1098.05224609375	-155.4273986816406	-1406.4150390625	896.6119384765625	-130.7441253662109	-1464.581665039062	876.681396484375	-72.59699249267578	-1539.734008789062	1059.83203125	-108.2863235473633	-1380.109252929688	807.0568237304688	-106.7193984985352	-1444.980224609375	803.7026977539062	-67.10650634765625	-1450.65625	1684.402587890625	-307.1919860839844	-1260.025634765625	1702.594482421875	-388.2422485351562	-1320.229248046875	1699.945434570312	-257.3103942871094	-1374.759521484375	1685.437744140625	-454.4799499511719	-1374.185302734375	937.201171875	-559.7205200195312	-1501.338012695312	937.1419677734375	-195.7767944335938	-1399.44189453125	967.8787841796875	-223.9904174804688	-1314.056518554688	962.7493286132812	-486.1980895996094	-1370.632568359375	492.175048828125	-491.1881103515625	-1360.713500976562	658.024658203125	-529.35595703125	-1470.720458984375	29.75026702880859	-502.2711486816406	-1441.904541015625	247.7571411132812	-509.3040771484375	-1285.741333007812	35.64555740356445	-384.8894348144531	-1366.5791015625	37.59778594970703	-372.0320434570312	-1348.270263671875	33.73572158813477	-477.7117309570312	-1553.833862304688	27.97342109680176	-470.8135070800781	-1456.13330078125	493.4307556152344	-232.2499237060547	-1463.7783203125	783.904052734375	-183.2383575439453	-1572.184814453125	32.09678268432617	-279.8711853027344	-1462.027709960938	348.8101196289062	-248.2388000488281	-1347.615478515625	36.91975021362305	-253.0112152099609	-1396.5107421875	35.89878082275391	-312.6109619140625	-1449.662963867188	36.52145767211914	-222.3242645263672	-1606.724609375	19.19565773010254	-348.5505981445312	-1396.381469726562	725.0236206054688	-121.2776565551758	nan	nan	nan	
59	0.58	-1578.808959960938	1014.276428222656	-348.3229675292969	-1534.173828125	1018.67138671875	-474.4437255859375	-1551.00634765625	1106.682373046875	-412.20947265625	-1324.778198242188	1291.57373046875	-351.5730285644531	-1557.55078125	1233.077514648438	-415.6451721191406	-1511.733764648438	1506.185668945312	-387.6235961914062	-1341.2890625	1402.701293945312	-355.0262756347656	-1604.765258789062	1381.51708984375	-325.7804565429688	-1522.848266601562	1454.985473632812	-484.6367492675781	-1407.967407226562	1481.687866210938	-538.6653442382812	-1399.028930664062	1356.577392578125	-620.1162109375	-1368.881713867188	1135.2373046875	-637.583251953125	-1467.926025390625	1126.9814453125	-619.6276245117188	-1300.146728515625	893.0333251953125	-559.4024658203125	-1314.698974609375	870.9107055664062	-642.2998046875	-1344.53662109375	1049.026977539062	-636.1904907226562	-1293.34423828125	726.7440795898438	-570.14794921875	-1307.447387695312	811.3153686523438	-633.2775268554688	-1271.400146484375	818.5153198242188	-572.6394653320312	-1495.893310546875	1466.834594726562	-225.0649566650391	-1532.450927734375	1402.4580078125	-165.6428833007812	-1548.345825195312	1115.20849609375	-117.7047500610352	-1597.0703125	1098.137817382812	-155.330322265625	-1406.15380859375	896.7625122070312	-130.7461700439453	-1464.24365234375	876.8142700195312	-72.5087890625	-1539.548828125	1059.919799804688	-108.116340637207	-1379.799560546875	807.2275390625	-106.7323837280273	-1444.618774414062	803.810791015625	-67.09711456298828	-1450.062255859375	1684.352783203125	-306.97998046875	-1259.50390625	1702.399169921875	-388.0043334960938	-1319.6513671875	1699.740112304688	-257.0833129882812	-1374.206909179688	1685.424926757812	-454.3031616210938	-1374.488037109375	937.2774658203125	-559.7086791992188	-1501.473999023438	937.1664428710938	-195.6157379150391	-1399.553833007812	967.8397216796875	-224.0116119384766	-1314.622192382812	962.6295166015625	-486.1636047363281	-1370.483154296875	492.2348937988281	-491.1514587402344	-1360.750122070312	658.0960083007812	-529.338623046875	-1470.733276367188	29.73248481750488	-502.2882385253906	-1441.799926757812	247.7536315917969	-509.2815246582031	-1285.761474609375	35.65712738037109	-384.9472351074219	-1366.595825195312	37.59939193725586	-372.0462036132812	-1348.281372070312	33.7530632019043	-477.7188415527344	-1553.849975585938	27.97181701660156	-470.822021484375	-1456.118408203125	493.4264221191406	-232.2776947021484	-1463.75634765625	783.8738403320312	-183.3385314941406	-1572.257202148438	32.07344818115234	-279.8193359375	-1462.017211914062	348.782470703125	-248.2518157958984	-1347.666259765625	36.97695541381836	-253.0711822509766	-1396.530029296875	35.90658950805664	-312.6543884277344	-1449.668090820312	36.55052947998047	-222.3692932128906	-1606.824462890625	19.1327018737793	-348.5481567382812	-1396.059448242188	725.158935546875	-121.2809143066406	nan	nan	nan	
60	0.59	-1578.929077148438	1014.269958496094	-348.2421569824219	-1534.308349609375	1018.706176757812	-474.3722229003906	-1551.067260742188	1106.833374023438	-412.11669921875	-1324.579711914062	1291.461181640625	-351.4956359863281	-1557.453857421875	1233.22705078125	-415.5582580566406	-1511.304443359375	1506.200561523438	-387.4739074707031	-1340.939697265625	1402.63525390625	-355.0148315429688	-1604.497924804688	1381.658813476562	-325.6367492675781	-1522.508544921875	1455.019653320312	-484.52734375	-1407.630249023438	1481.724365234375	-538.619873046875	-1398.79541015625	1356.63623046875	-620.1121826171875	-1369.2275390625	1135.239013671875	-637.8607177734375	-1468.245239257812	1127.23486328125	-619.874267578125	-1301.024780273438	892.7144165039062	-560.1680908203125	-1315.782958984375	870.7755126953125	-643.0823974609375	-1345.060791015625	1048.948608398438	-636.6384887695312	-1295.127075195312	725.9950561523438	-571.1417846679688	-1308.724487304688	811.1043701171875	-634.2398071289062	-1272.271606445312	818.2055053710938	-573.4041748046875	-1495.498046875	1466.830932617188	-224.9908599853516	-1532.09619140625	1402.515991210938	-165.4989318847656	-1548.163208007812	1115.264038085938	-117.5400161743164	-1596.874389648438	1098.291625976562	-155.0929107666016	-1405.8466796875	896.9450073242188	-130.7474670410156	-1463.824829101562	876.96240234375	-72.43435668945312	-1539.325073242188	1060.033081054688	-107.9046478271484	-1379.418701171875	807.4223022460938	-106.7623519897461	-1444.173095703125	803.9371337890625	-67.09676361083984	-1449.43408203125	1684.298706054688	-306.7775268554688	-1258.920043945312	1702.184326171875	-387.764892578125	-1319.031860351562	1699.529296875	-256.8453674316406	-1373.607299804688	1685.408935546875	-454.1041564941406	-1374.75830078125	937.3253784179688	-559.677001953125	-1501.597900390625	937.1968994140625	-195.4560089111328	-1399.661499023438	967.8031616210938	-224.0411224365234	-1315.12158203125	962.531982421875	-486.2334899902344	-1370.241455078125	492.2845458984375	-491.0439147949219	-1360.718627929688	658.1878051757812	-529.2702026367188	-1470.743286132812	29.71718978881836	-502.3043518066406	-1441.626953125	247.7509002685547	-509.23876953125	-1285.777221679688	35.66397857666016	-385.01708984375	-1366.6103515625	37.6027946472168	-372.0634155273438	-1348.29248046875	33.76887512207031	-477.7273559570312	-1553.861206054688	27.96917915344238	-470.8288269042969	-1456.075073242188	493.4236755371094	-232.3104400634766	-1463.654418945312	783.8285522460938	-183.5704345703125	-1572.333740234375	32.04580307006836	-279.7597961425781	-1461.986328125	348.7510375976562	-248.2638854980469	-1347.721557617188	37.04265213012695	-253.1392974853516	-1396.552001953125	35.91723251342773	-312.709228515625	-1449.676147460938	36.58249664306641	-222.4171295166016	-1606.934326171875	19.06379508972168	-348.5418090820312	-1395.649658203125	725.3202514648438	-121.2926712036133	nan	nan	nan	
61	0.6	-1579.053833007812	1014.260986328125	-348.1748962402344	-1534.440307617188	1018.736083984375	-474.3036804199219	-1551.117919921875	1106.96728515625	-412.0376281738281	-1324.360595703125	1291.3388671875	-351.42724609375	-1557.350463867188	1233.37255859375	-415.4694213867188	-1510.810791015625	1506.197143554688	-387.3169860839844	-1340.571533203125	1402.5732421875	-355.0168762207031	-1604.201904296875	1381.827758789062	-325.4820251464844	-1522.18310546875	1455.092407226562	-484.4423828125	-1407.275268554688	1481.749267578125	-538.5630493164062	-1398.52685546875	1356.694213867188	-620.1085205078125	-1369.525024414062	1135.22802734375	-638.1179809570312	-1468.511108398438	1127.461059570312	-620.1005249023438	-1301.8310546875	892.4451904296875	-560.8872680664062	-1316.785766601562	870.6511840820312	-643.8478393554688	-1345.55615234375	1048.873291015625	-637.0648193359375	-1297.05029296875	725.0607299804688	-572.033935546875	-1309.915161132812	810.9064331054688	-635.1649780273438	-1273.071655273438	817.9452514648438	-574.1223754882812	-1495.0673828125	1466.828857421875	-224.9147033691406	-1531.706298828125	1402.58251953125	-165.3745269775391	-1547.941284179688	1115.335083007812	-117.3524475097656	-1596.64990234375	1098.502563476562	-154.7063903808594	-1405.491333007812	897.1568603515625	-130.7443084716797	-1463.326904296875	877.1217041015625	-72.37441253662109	-1539.0615234375	1060.166259765625	-107.652099609375	-1378.964721679688	807.6403198242188	-106.8057708740234	-1443.642211914062	804.08154296875	-67.09809875488281	-1448.767211914062	1684.242919921875	-306.5874938964844	-1258.2646484375	1701.94580078125	-387.5379638671875	-1318.361206054688	1699.30859375	-256.6077270507812	-1372.958251953125	1685.3837890625	-453.8855590820312	-1374.98388671875	937.3451538085938	-559.6202392578125	-1501.712890625	937.2320556640625	-195.2989807128906	-1399.762451171875	967.7709350585938	-224.0785522460938	-1315.489135742188	962.4801025390625	-486.3784484863281	-1369.885864257812	492.3269348144531	-490.8504638671875	-1360.60400390625	658.2850341796875	-529.12353515625	-1470.75048828125	29.70471954345703	-502.3198547363281	-1441.369995117188	247.7498016357422	-509.1611938476562	-1285.782470703125	35.66125106811523	-385.109130859375	-1366.622802734375	37.60885238647461	-372.0820007324219	-1348.303100585938	33.78265380859375	-477.7365417480469	-1553.866943359375	27.96551322937012	-470.8338317871094	-1455.994750976562	493.4216613769531	-232.3473358154297	-1463.450805664062	783.7598266601562	-183.9783020019531	-1572.405029296875	32.00841522216797	-279.6939086914062	-1461.9267578125	348.71533203125	-248.2737274169922	-1347.781005859375	37.11616516113281	-253.2156829833984	-1396.575805664062	35.9281005859375	-312.7730407714844	-1449.68603515625	36.61830520629883	-222.4671020507812	-1607.040893554688	18.97267913818359	-348.5271911621094	-1395.1455078125	725.5072631835938	-121.3163375854492	nan	nan	nan	
